<svg xmlns="http://www.w3.org/2000/svg" viewBox="0 0 70 70" id="e-commerce">
  <path d="M65 49h-3V12c0-1.103-.897-2-2-2H10c-1.103 0-2 .897-2 2v37H5c-1.103 0-2 .897-2 2 0 4.962 4.037 9 9 9h46c4.963 0 9-4.038 9-9 0-1.103-.897-2-2-2zM10 12l50-.001V49H10V12zm55 39c0 3.86-3.14 7-7 7H12c-3.86 0-7-3.14-7-7h56l.007-.001H65V51z"></path>
  <path d="M45 25h-3v-2c0-3.86-3.14-7-7-7s-7 3.14-7 7v2h-3a1 1 0 0 0-1 1v17c0 1.103.897 2 2 2h18c1.103 0 2-.897 2-2V26a1 1 0 0 0-1-1zm-15-2c0-2.757 2.243-5 5-5s5 2.243 5 5v2H30v-2zm14 20H26V27h2v3a1 1 0 1 0 2 0v-3h10v3a1 1 0 1 0 2 0v-3h2v16z"></path>
</svg>
